<?xml version="1.0" standalone="no"?><!DOCTYPE svg PUBLIC "-//W3C//DTD SVG 1.1//EN" "http://www.w3.org/Graphics/SVG/1.1/DTD/svg11.dtd"><svg t="1574466963707" class="icon" viewBox="0 0 1024 1024" version="1.1" xmlns="http://www.w3.org/2000/svg" p-id="2503" xmlns:xlink="http://www.w3.org/1999/xlink" width="48" height="48"><defs><style type="text/css"></style></defs><path d="M768.227556 134.442667A454.016 454.016 0 0 0 512.071111 55.751111c-121.628444 0-236.202667 47.374222-322.631111 133.461333-86.257778 86.272-133.76 200.917333-133.76 322.801778 0 251.562667 204.743111 456.248889 456.391111 456.248889 239.473778 0 439.352889-186.979556 455.054222-425.159111a365.226667 365.226667 0 0 0 1.194667-31.118222A456.078222 456.078222 0 0 0 768.227556 134.442667z m142.350222 351.843555l-364.558222 10.496 250.510222-264.903111a398.862222 398.862222 0 0 1 114.048 254.407111zM736.256 181.489778a401.095111 401.095111 0 0 1 39.68 30.776889l-264.149333 279.324444-271.872-271.872c74.353778-69.12 170.410667-107.079111 272.156444-107.079111a397.511111 397.511111 0 0 1 224.184889 68.849778zM512.071111 911.36c-220.273778 0-399.502222-179.171556-399.502222-399.36a396.8 396.8 0 0 1 107.207111-272.199111l282.24 282.254222c0.028444 0.042667 0.085333 0.056889 0.128 0.085333a14.108444 14.108444 0 0 0 4.110222 2.730667c0.142222 0.071111 0.256 0.213333 0.398222 0.270222a14.008889 14.008889 0 0 0 5.632 1.095111l0.056889-0.014222h0.142223l398.904888-11.491555a309.162667 309.162667 0 0 1-0.967111 24.120889c-13.795556 208.896-188.743111 372.508444-398.350222 372.508444z" fill="" p-id="2504"></path><path d="M171.989333 552.604444a14.193778 14.193778 0 0 0 13.013334-15.331555 312.149333 312.149333 0 0 1-1.024-25.258667 14.222222 14.222222 0 1 0-28.444445 0c0 9.159111 0.369778 18.432 1.123556 27.591111a14.222222 14.222222 0 0 0 15.331555 12.999111zM198.257778 604.273778a14.222222 14.222222 0 1 0-27.093334 8.647111 329.770667 329.770667 0 0 0 118.542223 165.475555 14.151111 14.151111 0 0 0 8.462222 2.801778 14.222222 14.222222 0 0 0 8.476444-25.628444 301.539556 301.539556 0 0 1-108.387555-151.296z" fill="" p-id="2505"></path></svg>